<?xml version="1.0" encoding="UTF-8" standalone="no"?>
<!-- Generated by IcoMoon.io -->

<svg
   version="1.1"
   width="97"
   height="32"
   viewBox="0 0 97 32"
   id="svg6"
   sodipodi:docname="ubuntu.svg"
   inkscape:version="1.1.1 (3bf5ae0d25, 2021-09-20)"
   xmlns:inkscape="http://www.inkscape.org/namespaces/inkscape"
   xmlns:sodipodi="http://sodipodi.sourceforge.net/DTD/sodipodi-0.dtd"
   xmlns="http://www.w3.org/2000/svg"
   xmlns:svg="http://www.w3.org/2000/svg"
   xmlns:rdf="http://www.w3.org/1999/02/22-rdf-syntax-ns#"
   xmlns:cc="http://creativecommons.org/ns#"
   xmlns:dc="http://purl.org/dc/elements/1.1/">
  <defs
     id="defs10">
    <rect
       x="32.066944"
       y="32"
       width="76.920502"
       height="18.476988"
       id="rect8760" />
  </defs>
  <sodipodi:namedview
     id="namedview8"
     pagecolor="#505050"
     bordercolor="#eeeeee"
     borderopacity="1"
     inkscape:pageshadow="0"
     inkscape:pageopacity="0"
     inkscape:pagecheckerboard="0"
     showgrid="true"
     inkscape:zoom="14.9375"
     inkscape:cx="45.723849"
     inkscape:cy="17.372385"
     inkscape:window-width="1920"
     inkscape:window-height="1017"
     inkscape:window-x="-8"
     inkscape:window-y="-8"
     inkscape:window-maximized="1"
     inkscape:current-layer="svg6"
     width="33px">
    <inkscape:grid
       type="xygrid"
       id="grid10744" />
  </sodipodi:namedview>
  <title
     id="title2">ubuntu</title>
  <g
     id="g940">
    <path
       fill="#e95420"
       d="M 16,0 C 24.831,0 32,7.169 32,16 32,24.831 24.831,32 16,32 7.169,32 0,24.831 0,16 0,7.169 7.169,0 16,0 Z m 4.372,23.573 c -1.021,0.588 -1.372,1.896 -0.781,2.919 0.588,1.02 1.896,1.371 2.917,0.779 1.021,-0.588 1.372,-1.896 0.78,-2.919 -0.588,-1.02 -1.895,-1.371 -2.916,-0.779 z M 16,22.24 c -0.94,0 -1.831,-0.209 -2.628,-0.58 l -1.484,2.66 c 1.24,0.612 2.637,0.961 4.112,0.961 0.861,0 1.691,-0.121 2.48,-0.341 0.139,-0.857 0.647,-1.645 1.46,-2.116 0.812,-0.468 1.751,-0.515 2.56,-0.208 1.581,-1.551 2.609,-3.665 2.76,-6.02 L 22.213,16.552 C 21.933,19.74 19.26,22.24 16,22.24 Z M 9.76,16 c 0,-2.111 1.049,-3.975 2.653,-5.107 l -1.56,-2.615 c -1.872,1.24 -3.26,3.159 -3.841,5.38 0.675,0.539 1.107,1.379 1.107,2.32 0,0.939 -0.432,1.759 -1.107,2.319 0.581,2.22 1.969,4.139 3.841,5.379 l 1.56,-2.62 C 10.809,19.96 9.76,18.099 9.76,16 Z M 5.12,13.864 c -1.18,0 -2.136,0.956 -2.136,2.136 0,1.18 0.956,2.136 2.136,2.136 C 6.3,18.136 7.255,17.18 7.255,16 7.255,14.82 6.3,13.864 5.12,13.864 Z M 16,9.76 c 3.26,0 5.933,2.5 6.213,5.687 L 25.26,15.402 C 25.109,13.049 24.08,10.935 22.5,9.381 21.688,9.69 20.749,9.64 19.94,9.176 19.128,8.707 18.62,7.916 18.48,7.055 17.688,6.842 16.861,6.722 16,6.722 c -1.48,0 -2.873,0.347 -4.112,0.96 l 1.484,2.66 C 14.172,9.97 15.063,9.762 16,9.762 Z m 4.372,-1.335 c 1.02,0.589 2.328,0.241 2.919,-0.78 0.588,-1.02 0.241,-2.328 -0.784,-2.92 C 21.487,4.138 20.179,4.486 19.588,5.51 19,6.529 19.348,7.835 20.372,8.425 Z"
       id="path4" />
    <text
       xml:space="preserve"
       id="text8758"
       style="font-style:normal;font-variant:normal;font-weight:normal;font-stretch:normal;font-size:5.33333px;line-height:0;font-family:'Eurostile Next LT Pro';-inkscape-font-specification:'Eurostile Next LT Pro';white-space:pre;shape-inside:url(#rect8760);fill:#ffffff"
       transform="matrix(2.1990465,0,0,3.7599915,-38.600104,-102.25392)"><tspan
         x="32.066406"
         y="33.066666"
         id="tspan3882">Tölvu Stöðin </tspan></text>
  </g>
  <metadata
     id="metadata826">
    <rdf:RDF>
      <cc:Work
         rdf:about="">
        <dc:title>ubuntu</dc:title>
      </cc:Work>
    </rdf:RDF>
  </metadata>
</svg>
